# xmcd
#
# Track frame offsets: 
#        150
#        17543
#        33171
#        51204
#        70374
#        87392
#        111236
#        128919
#        154484
#        178918
#        197665
#        216647
#        238250
#        256488
#        273035
#        294077
#        313216
#        333193
#
# Disc length: 4682 seconds
#
# Revision: 0
# Processed by: cddbd v1.5.1PL2 Copyright (c) Steve Scherf et al.
# Submitted via: ExactAudioCopy v0.95b3
#
DISCID=11124812
DTITLE=Air Supply - Forever Love
DYEAR=2003
DGENRE=
TTITLE0=Lost In Love
TTITLE1=Every Woman In The World
TTITLE2=All Out Of Love
TTITLE3=The One That I Love
TTITLE4=Here Am I
TTITLE5=Sweet Dreams
TTITLE6=Even The Nights Are Better
TTITLE7=Two Less Lonely People In The World
TTITLE8=Making Love Out Of Nothing At All
TTITLE9=The Power Of Love
TTITLE10=Lonely Is The Night
TTITLE11=Someone Who Believes In You
TTITLE12=Without You
TTITLE13=Goodbye
TTITLE14=Unchained Melody
TTITLE15=The Way I Feel
TTITLE16=Now And Forever
TTITLE17=Daybreak
EXTD=
EXTT0=
EXTT1=
EXTT2=
EXTT3=
EXTT4=
EXTT5=
EXTT6=
EXTT7=
EXTT8=
EXTT9=
EXTT10=
EXTT11=
EXTT12=
EXTT13=
EXTT14=
EXTT15=
EXTT16=
EXTT17=
PLAYORDER=
